# Blender 5.2.2 LTS
# www.blender.org
mtllib knife2.mtl
o _gltfNode_0
v -6.480089 66.704849 79.410889
v -9.315208 66.704865 -140.829773
v -6.480135 -68.829727 79.410873
v -9.315255 -68.829712 -140.829788
v 2.069289 -68.829720 -140.976334
v 2.069336 66.704857 -140.976318
v 4.904409 -68.829735 79.264313
v 4.904456 66.704842 79.264328
v -9.315255 -68.829712 -140.829788
v 2.069289 -68.829720 -140.976334
v -6.480135 -68.829727 79.410873
v 4.904409 -68.829735 79.264313
v -9.315208 66.704865 -140.829773
v 2.069336 66.704857 -140.976318
v -9.315255 -68.829712 -140.829788
v 2.069289 -68.829720 -140.976334
v -6.480089 66.704849 79.410889
v 4.904456 66.704842 79.264328
v -9.315208 66.704865 -140.829773
v 2.069336 66.704857 -140.976318
v -6.480135 -68.829727 79.410873
v 4.904409 -68.829735 79.264313
v -6.480089 66.704849 79.410889
v 4.904456 66.704842 79.264328
vn -0.9999 -0.0019 0.0129
vn 0.9999 -0.0019 -0.0129
vn -0.0000 -1.0000 -0.0000
vn -0.0129 -0.0036 -0.9999
vn -0.0000 1.0000 -0.0000
vn 0.0129 -0.0036 0.9999
vt 0.008247 0.001930
vt 0.257062 0.001930
vt 0.008247 0.250712
vt 0.257062 0.250712
vt 0.513409 0.250907
vt 0.513409 0.002125
vt 0.264594 0.250907
vt 0.264594 0.002125
vt 0.253389 0.321330
vt 0.253389 0.296452
vt 0.004574 0.321330
vt 0.004574 0.296452
vt 0.255755 0.286157
vt 0.255755 0.261279
vt 0.007002 0.286157
vt 0.007002 0.261279
vt 0.514467 0.292084
vt 0.514467 0.267206
vt 0.265652 0.292084
vt 0.265652 0.267206
vt 0.275052 0.297271
vt 0.275052 0.295828
vt 0.260423 0.297271
vt 0.260423 0.295828
s 1
usemtl 62
f 1/1/1 2/2/1 3/3/1
f 2/2/1 4/4/1 3/3/1
f 5/5/2 6/6/2 7/7/2
f 6/6/2 8/8/2 7/7/2
s 0
f 9/9/3 10/10/3 11/11/3
f 10/10/3 12/12/3 11/11/3
s 1
f 13/13/4 14/14/4 15/15/4
f 14/14/4 16/16/4 15/15/4
s 0
f 17/17/5 18/18/5 19/19/5
f 18/18/5 20/20/5 19/19/5
s 1
f 21/21/6 22/22/6 23/23/6
f 22/22/6 24/24/6 23/23/6
l 4 5
l 8 9
l 12 13
l 16 17
l 20 21
